<svg width="110" height="28" viewBox="0 0 110 28" fill="none" xmlns="http://www.w3.org/2000/svg">
<g clip-path="url(#clip0_719_1098)">
<path d="M14.8299 0C6.64009 0 0 6.26797 0 14C0 21.732 6.64009 28 14.8299 28C23.0197 28 29.6609 21.732 29.6609 14C29.6609 6.26797 23.0208 0 14.8299 0ZM14.8299 24.8147C8.42576 24.8102 3.20717 19.9612 3.20717 14C3.20717 8.03883 8.42576 3.18982 14.8299 3.18982C21.234 3.18982 26.4526 8.03883 26.4526 14C26.4526 19.9612 21.2385 24.8102 14.8299 24.8102V24.8147Z" fill="#3D441E"/>
<path d="M63.2051 0.327148V27.6402H80.3777V24.6275H66.9647C66.7704 24.6275 66.584 24.5507 66.4465 24.4141C66.3091 24.2774 66.2319 24.0921 66.2319 23.8989V15.6028C66.2319 15.4096 66.3091 15.2243 66.4465 15.0876C66.584 14.951 66.7704 14.8742 66.9647 14.8742H76.12V11.857H66.9647C66.7704 11.857 66.584 11.7802 66.4465 11.6435C66.3091 11.5069 66.2319 11.3216 66.2319 11.1283V4.0674C66.2319 3.87415 66.3091 3.68881 66.4465 3.55217C66.584 3.41552 66.7704 3.33875 66.9647 3.33875H80.3777V0.327148H63.2051Z" fill="#3D441E"/>
<path d="M106.926 0.288535V16.8444C106.922 16.9929 106.87 17.1361 106.776 17.252C106.683 17.3679 106.554 17.45 106.409 17.4856C106.264 17.5213 106.111 17.5085 105.974 17.4493C105.837 17.3901 105.723 17.2878 105.65 17.158C101.687 9.88167 95.6671 3.70168 89.0871 0.252441H86.024L86.0127 27.6366H89.0871V4.69202C89.0871 4.55615 89.1238 4.42276 89.1934 4.30583C89.2629 4.18889 89.3629 4.0927 89.4827 4.02733C89.6025 3.96195 89.7377 3.92979 89.8743 3.93422C90.0109 3.93864 90.1438 3.97948 90.259 4.05247C97.9043 8.94097 104.313 17.8923 106.915 27.5351H106.926V27.6479H110V0.288535H106.926Z" fill="#3D441E"/>
<path d="M48.1459 0.342773H35.6077V0.376612H35.5112V27.657H38.5108V23.0922C38.5121 22.6645 38.6551 22.2491 38.9179 21.9104C39.1806 21.5717 39.5483 21.3286 39.9641 21.2187L50.2197 18.4733C51.9838 18.0007 53.5267 17.1198 54.6816 15.9185C56.372 14.1694 57.3289 11.8459 57.3578 9.42044C57.4191 4.42592 53.166 0.342773 48.1459 0.342773ZM52.6498 13.983C51.8488 14.8154 50.7552 15.4346 49.4857 15.7741L39.2403 18.5116C39.1545 18.5347 39.0646 18.5378 38.9775 18.5207C38.8903 18.5036 38.8083 18.4668 38.7378 18.4132C38.6672 18.3595 38.6101 18.2904 38.5707 18.2113C38.5314 18.1321 38.5108 18.045 38.5108 17.9567V3.89127C38.5108 3.69025 38.5911 3.49745 38.7341 3.3553C38.8771 3.21316 39.071 3.1333 39.2732 3.1333H48.2355C51.6174 3.1333 54.4751 5.77832 54.5477 9.13958C54.5685 10.0315 54.4115 10.9186 54.0857 11.7499C53.76 12.5812 53.2719 13.3401 52.6498 13.983Z" fill="#3D441E"/>
</g>
<defs>
<clipPath id="clip0_719_1098">
<rect width="110" height="28" fill="white"/>
</clipPath>
</defs>
</svg>
