<svg width="45" height="45" viewBox="0 0 45 45" fill="none" xmlns="http://www.w3.org/2000/svg">
<rect x="44.5" y="44.5" width="44" height="44" rx="22" transform="rotate(-180 44.5 44.5)" stroke="#F6F5EC"/>
<path d="M32.3536 22.3536C32.5488 22.1583 32.5488 21.8417 32.3536 21.6464L29.1716 18.4645C28.9763 18.2692 28.6597 18.2692 28.4645 18.4645C28.2692 18.6597 28.2692 18.9763 28.4645 19.1716L31.2929 22L28.4645 24.8284C28.2692 25.0237 28.2692 25.3403 28.4645 25.5355C28.6597 25.7308 28.9763 25.7308 29.1716 25.5355L32.3536 22.3536ZM32 21.5L12 21.5L12 22.5L32 22.5L32 21.5Z" fill="#F6F5EC"/>
</svg>
