<svg width="200" height="133" viewBox="0 0 200 133" fill="none" xmlns="http://www.w3.org/2000/svg">
<g clip-path="url(#clip0_719_1027)">
<path d="M9.15528 4.28747C9.06024 3.92357 8.93351 3.59132 8.77511 3.29071C8.61671 2.9901 8.39494 2.72113 8.1415 2.49963C7.88805 2.27812 7.58709 2.10408 7.2386 1.97751C6.89011 1.85094 6.4941 1.78765 6.03473 1.78765C5.36944 1.78765 4.78335 1.93005 4.30814 2.19901C3.83293 2.46798 3.42108 2.83188 3.12011 3.27489C2.81915 3.71789 2.59738 4.24001 2.43898 4.80959C2.29642 5.37917 2.21722 5.96457 2.21722 6.56579C2.21722 7.16701 2.29642 7.75242 2.43898 8.322C2.58154 8.89158 2.81915 9.41369 3.12011 9.8567C3.42108 10.2997 3.81709 10.6636 4.30814 10.9326C4.79919 11.2015 5.36944 11.3439 6.03473 11.3439C6.52578 11.3439 6.95347 11.2648 7.33364 11.0908C7.71381 10.9167 8.03062 10.6794 8.2999 10.3946C8.56919 10.094 8.77511 9.74594 8.93351 9.3504C9.09192 8.95486 9.18696 8.52768 9.23448 8.06885H11.3729C11.3254 8.81247 11.167 9.50862 10.8977 10.1257C10.6284 10.7427 10.2483 11.2806 9.77305 11.7395C9.29784 12.1983 8.75927 12.5464 8.12566 12.7837C7.49204 13.0368 6.79507 13.1476 6.03473 13.1476C5.10015 13.1476 4.26062 12.9736 3.51612 12.6255C2.77163 12.2774 2.13801 11.8028 1.63112 11.2174C1.10839 10.6161 0.712384 9.91998 0.443099 9.1289C0.173813 8.33782 0.03125 7.48345 0.03125 6.58161C0.03125 5.67978 0.173813 4.84123 0.443099 4.05015C0.712384 3.25906 1.10839 2.56291 1.63112 1.96169C2.15385 1.36047 2.77163 0.885816 3.51612 0.53774C4.26062 0.189663 5.10015 0.015625 6.03473 0.015625C6.73171 0.015625 7.397 0.110555 8.03062 0.300415C8.64839 0.490275 9.2028 0.775065 9.67801 1.13896C10.1532 1.50286 10.5334 1.96169 10.8344 2.4838C11.1353 3.00592 11.3096 3.60714 11.3729 4.28747H9.17112H9.15528Z" fill="#332F21"/>
<path d="M22.2398 0C23.1744 0 24.0139 0.174038 24.7584 0.522115C25.5029 0.870191 26.1365 1.34484 26.6434 1.94606C27.1662 2.54729 27.5622 3.24344 27.8314 4.03452C28.1007 4.82561 28.2433 5.67998 28.2433 6.56599C28.2433 7.452 28.1007 8.32219 27.8314 9.11328C27.5622 9.90436 27.1662 10.6005 26.6434 11.2017C26.1207 11.803 25.5029 12.2776 24.7584 12.6099C24.0139 12.9579 23.1744 13.132 22.2398 13.132C21.3052 13.132 20.4657 12.9579 19.7212 12.6099C18.9767 12.2618 18.3431 11.7871 17.8362 11.2017C17.3135 10.6005 16.9175 9.90436 16.6482 9.11328C16.3789 8.32219 16.2363 7.46782 16.2363 6.56599C16.2363 5.66415 16.3789 4.82561 16.6482 4.03452C16.9175 3.24344 17.3135 2.54729 17.8362 1.94606C18.3589 1.34484 18.9767 0.870191 19.7212 0.522115C20.4657 0.174038 21.3052 0 22.2398 0V0ZM22.2398 1.78785C21.5745 1.78785 20.9884 1.93024 20.5132 2.19921C20.038 2.46818 19.6262 2.83208 19.3252 3.27508C19.0242 3.71809 18.8025 4.2402 18.6441 4.80978C18.5015 5.37936 18.4223 5.96477 18.4223 6.56599C18.4223 7.16721 18.5015 7.75261 18.6441 8.32219C18.7866 8.89177 19.0242 9.41389 19.3252 9.85689C19.6262 10.2999 20.0222 10.6638 20.5132 10.9328C21.0043 11.2017 21.5745 11.3441 22.2398 11.3441C22.9051 11.3441 23.4912 11.2176 23.9664 10.9328C24.4575 10.6638 24.8535 10.2999 25.1544 9.85689C25.4554 9.39807 25.6772 8.89177 25.8356 8.32219C25.9781 7.75261 26.0573 7.16721 26.0573 6.56599C26.0573 5.96477 25.9781 5.37936 25.8356 4.80978C25.693 4.2402 25.4554 3.71809 25.1544 3.27508C24.8535 2.81626 24.4575 2.46818 23.9664 2.19921C23.4754 1.93024 22.9051 1.78785 22.2398 1.78785Z" fill="#332F21"/>
<path d="M33.6763 0.300781H36.0048L41.739 9.54063H41.7707V0.300781H43.8616V12.8474H41.5331L35.8147 3.62333H35.7672V12.8474H33.6763V0.300781Z" fill="#332F21"/>
<path d="M49.897 0.300781H52.2255L57.9597 9.54063H57.9914V0.300781H60.0823V12.8474H57.7538L52.0354 3.62333H51.9879V12.8474H49.897V0.300781Z" fill="#332F21"/>
<path d="M66.2124 0.300781H75.2572V2.19938H68.4142V5.49029H74.7503V7.27813H68.4142V10.9488H75.384V12.8474H66.2124V0.300781Z" fill="#332F21"/>
<path d="M89.2915 4.28747C89.1965 3.92357 89.0697 3.59132 88.9113 3.29071C88.7529 2.9901 88.5312 2.72113 88.2777 2.49963C88.0243 2.27812 87.7233 2.10408 87.3748 1.97751C87.0263 1.85094 86.6303 1.78765 86.171 1.78765C85.5057 1.78765 84.9196 1.93005 84.4444 2.19901C83.9692 2.46798 83.5573 2.83188 83.2563 3.27489C82.9554 3.71789 82.7336 4.24001 82.5752 4.80959C82.4326 5.37917 82.3534 5.96457 82.3534 6.56579C82.3534 7.16701 82.4326 7.75242 82.5752 8.322C82.7178 8.89158 82.9554 9.41369 83.2563 9.8567C83.5573 10.2997 83.9533 10.6636 84.4444 10.9326C84.9354 11.2015 85.5057 11.3439 86.171 11.3439C86.662 11.3439 87.0897 11.2648 87.4699 11.0908C87.85 10.9167 88.1668 10.6794 88.4361 10.3946C88.7054 10.094 88.9113 9.74594 89.0697 9.3504C89.2281 8.95486 89.3232 8.52768 89.3707 8.06885H91.5092C91.4616 8.81247 91.3032 9.50862 91.0339 10.1257C90.7647 10.7427 90.3845 11.2806 89.9093 11.7395C89.4341 12.1983 88.8955 12.5464 88.2619 12.7837C87.6283 13.0368 86.9313 13.1476 86.171 13.1476C85.2364 13.1476 84.3968 12.9736 83.6524 12.6255C82.9079 12.2774 82.2742 11.8028 81.7674 11.2174C81.2446 10.6161 80.8486 9.91998 80.5793 9.1289C80.31 8.33782 80.1675 7.48345 80.1675 6.58161C80.1675 5.67978 80.31 4.84123 80.5793 4.05015C80.8486 3.25906 81.2446 2.56291 81.7674 1.96169C82.2901 1.36047 82.9079 0.885816 83.6524 0.53774C84.3968 0.189663 85.2364 0.015625 86.171 0.015625C86.8679 0.015625 87.5332 0.110555 88.1668 0.300415C88.7846 0.490275 89.339 0.775065 89.8142 1.13896C90.2894 1.50286 90.6696 1.96169 90.9706 2.4838C91.2715 3.00592 91.4458 3.60714 91.5092 4.28747H89.3073H89.2915Z" fill="#332F21"/>
<path d="M95.8496 0.300781H106.019V2.19938H102.027V12.8474H99.8255V2.19938H95.8496V0.300781Z" fill="#332F21"/>
<path d="M110.993 0.300781H113.195V12.8474H110.993V0.300781Z" fill="#332F21"/>
<path d="M119.293 0.300781H121.622L127.356 9.54063H127.388V0.300781H129.479V12.8474H127.15L121.432 3.62333H121.384V12.8474H119.293V0.300781Z" fill="#332F21"/>
<path d="M146.57 12.847H145.161L144.828 11.3756C144.242 12.0401 143.656 12.4989 143.07 12.7679C142.484 13.021 141.802 13.1476 141.042 13.1476C140.107 13.1476 139.268 12.9736 138.523 12.6255C137.779 12.2774 137.145 11.8028 136.638 11.2174C136.116 10.6161 135.72 9.91998 135.45 9.1289C135.181 8.33782 135.039 7.48345 135.039 6.58161C135.039 5.67978 135.181 4.84123 135.45 4.05015C135.72 3.25906 136.116 2.56291 136.638 1.96169C137.161 1.36047 137.779 0.885816 138.523 0.53774C139.268 0.189663 140.107 0.015625 141.042 0.015625C141.723 0.015625 142.373 0.110555 142.99 0.284593C143.608 0.458631 144.163 0.743421 144.638 1.0915C145.113 1.4554 145.525 1.8984 145.826 2.43634C146.143 2.97428 146.349 3.59132 146.428 4.30329H144.273C144.21 3.89193 144.083 3.52803 143.893 3.22742C143.703 2.92681 143.45 2.65784 143.165 2.45216C142.864 2.24648 142.547 2.08826 142.183 1.97751C141.818 1.86676 141.438 1.81929 141.042 1.81929C140.377 1.81929 139.791 1.96169 139.315 2.23066C138.824 2.49963 138.428 2.86352 138.127 3.30653C137.826 3.74954 137.605 4.27165 137.446 4.84123C137.304 5.41081 137.225 5.99621 137.225 6.59743C137.225 7.19866 137.304 7.78406 137.446 8.35364C137.589 8.92322 137.826 9.44533 138.127 9.88834C138.428 10.3313 138.824 10.6952 139.315 10.9642C139.807 11.2332 140.377 11.3756 141.042 11.3756C141.612 11.3756 142.103 11.3123 142.531 11.1541C142.959 10.9959 143.339 10.7744 143.624 10.4737C143.925 10.1731 144.147 9.80923 144.305 9.38205C144.464 8.95486 144.543 8.46439 144.559 7.94228H141.216V6.26518H146.57V12.8786V12.847Z" fill="#332F21"/>
<path d="M91.082 35.4555H96.6262C97.5132 35.4555 98.2419 35.582 98.8121 35.8352C99.3824 36.0883 99.8101 36.4206 100.111 36.8003C100.412 37.18 100.618 37.6072 100.729 38.066C100.84 38.5249 100.903 38.9521 100.903 39.3318C100.903 39.7115 100.84 40.1387 100.729 40.5817C100.618 41.0405 100.412 41.4519 100.111 41.8316C99.8101 42.2113 99.3665 42.5436 98.8121 42.7809C98.2419 43.0341 97.529 43.1606 96.6262 43.1606H93.2838V47.9704H91.082V35.4238V35.4555ZM93.2838 41.3886H96.4994C96.7529 41.3886 96.9905 41.357 97.2598 41.2778C97.5291 41.1987 97.7508 41.088 97.9726 40.9298C98.1943 40.7716 98.3686 40.5659 98.4953 40.2969C98.622 40.0279 98.7012 39.6957 98.7012 39.3001C98.7012 38.9046 98.6379 38.5565 98.527 38.2876C98.4161 38.0186 98.2577 37.7971 98.0518 37.6389C97.8459 37.4806 97.6241 37.3699 97.3706 37.3066C97.1172 37.2433 96.8321 37.2117 96.5469 37.2117H93.2838V41.357V41.3886Z" fill="#332F21"/>
<path d="M106.336 35.4561H115.381V37.3547H108.538V40.6456H114.874V42.4334H108.538V46.104H115.508V48.0026H106.336V35.4561Z" fill="#332F21"/>
<path d="M126.279 35.1553C127.214 35.1553 128.053 35.3293 128.798 35.6774C129.542 36.0255 130.176 36.5001 130.683 37.1013C131.206 37.7026 131.602 38.3987 131.871 39.1898C132.14 39.9809 132.283 40.8353 132.283 41.7213C132.283 42.6073 132.14 43.4775 131.871 44.2685C131.602 45.0596 131.206 45.7558 130.683 46.357C130.16 46.9582 129.542 47.4329 128.798 47.7651C128.053 48.1132 127.214 48.2872 126.279 48.2872C125.345 48.2872 124.505 48.1132 123.761 47.7651C123.016 47.4171 122.383 46.9424 121.876 46.357C121.353 45.7558 120.957 45.0596 120.688 44.2685C120.418 43.4775 120.276 42.6231 120.276 41.7213C120.276 40.8194 120.418 39.9809 120.688 39.1898C120.957 38.3987 121.353 37.7026 121.876 37.1013C122.398 36.5001 123.016 36.0255 123.761 35.6774C124.505 35.3293 125.345 35.1553 126.279 35.1553ZM126.279 36.9431C125.614 36.9431 125.028 37.0855 124.553 37.3545C124.078 37.6235 123.666 37.9874 123.365 38.4304C123.064 38.8734 122.842 39.3955 122.684 39.9651C122.541 40.5346 122.462 41.12 122.462 41.7213C122.462 42.3225 122.541 42.9079 122.684 43.4775C122.826 44.047 123.064 44.5692 123.365 45.0122C123.666 45.4552 124.062 45.8191 124.553 46.088C125.044 46.357 125.614 46.4994 126.279 46.4994C126.945 46.4994 127.531 46.3728 128.006 46.088C128.497 45.8191 128.893 45.4552 129.194 45.0122C129.495 44.5533 129.717 44.047 129.875 43.4775C130.018 42.9079 130.097 42.3225 130.097 41.7213C130.097 41.12 130.018 40.5346 129.875 39.9651C129.733 39.3955 129.495 38.8734 129.194 38.4304C128.893 37.9715 128.497 37.6235 128.006 37.3545C127.515 37.0855 126.945 36.9431 126.279 36.9431Z" fill="#332F21"/>
<path d="M137.811 35.4555H143.355C144.242 35.4555 144.971 35.582 145.541 35.8352C146.111 36.0883 146.539 36.4206 146.84 36.8003C147.141 37.18 147.347 37.6072 147.458 38.066C147.569 38.5249 147.632 38.9521 147.632 39.3318C147.632 39.7115 147.569 40.1387 147.458 40.5817C147.347 41.0405 147.141 41.4519 146.84 41.8316C146.539 42.2113 146.096 42.5436 145.541 42.7809C144.971 43.0341 144.258 43.1606 143.355 43.1606H140.013V47.9704H137.811V35.4238V35.4555ZM140.013 41.3886H143.228C143.482 41.3886 143.719 41.357 143.989 41.2778C144.258 41.1987 144.48 41.088 144.702 40.9298C144.923 40.7716 145.098 40.5659 145.224 40.2969C145.351 40.0279 145.43 39.6957 145.43 39.3001C145.43 38.9046 145.367 38.5565 145.256 38.2876C145.145 38.0186 144.987 37.7971 144.781 37.6389C144.575 37.4806 144.353 37.3699 144.1 37.3066C143.846 37.2433 143.561 37.2117 143.276 37.2117H140.013V41.357V41.3886Z" fill="#332F21"/>
<path d="M153.065 35.4561H155.267V46.104H161.651V48.0026H153.065V35.4561Z" fill="#332F21"/>
<path d="M166.688 35.4561H175.733V37.3547H168.89V40.6456H175.226V42.4334H168.89V46.104H175.86V48.0026H166.688V35.4561Z" fill="#332F21"/>
<path d="M196.389 46.5943C195.913 47.1639 195.406 47.5911 194.836 47.8442C194.266 48.1132 193.616 48.2398 192.872 48.2398C192.302 48.2398 191.763 48.1607 191.288 47.9866C190.797 47.8126 190.385 47.5753 190.037 47.2588C189.688 46.9424 189.419 46.5469 189.213 46.088C189.007 45.6292 188.928 45.1071 188.928 44.5217C188.928 44.0787 189.007 43.6673 189.181 43.3034C189.355 42.9395 189.561 42.6073 189.831 42.3067C190.1 42.0061 190.417 41.7371 190.749 41.4998C191.098 41.2624 191.446 41.0568 191.811 40.8669C191.652 40.6612 191.494 40.4555 191.335 40.2498C191.177 40.0442 191.05 39.8385 190.939 39.6012C190.829 39.3797 190.734 39.1423 190.654 38.905C190.591 38.6519 190.543 38.3987 190.543 38.1297C190.543 37.6709 190.623 37.2596 190.781 36.8957C190.939 36.5318 191.161 36.2153 191.446 35.9622C191.731 35.709 192.048 35.5034 192.428 35.361C192.809 35.2186 193.205 35.1553 193.616 35.1553C194.012 35.1553 194.408 35.2186 194.789 35.3451C195.169 35.4717 195.501 35.6616 195.787 35.9147C196.072 36.1679 196.309 36.4843 196.484 36.8482C196.658 37.2121 196.753 37.6551 196.753 38.1614C196.753 38.5411 196.689 38.8892 196.563 39.2056C196.436 39.5221 196.278 39.8068 196.072 40.0758C195.866 40.3448 195.628 40.5821 195.343 40.7878C195.074 40.9935 194.773 41.1833 194.472 41.3574L196.42 43.7148C196.484 43.5091 196.563 43.2876 196.626 43.0345C196.689 42.7813 196.753 42.4491 196.8 42.0377H198.559C198.495 42.5915 198.384 43.1294 198.226 43.6515C198.068 44.1736 197.846 44.6641 197.561 45.1071L199.968 48.0183H197.513L196.373 46.6102L196.389 46.5943ZM192.856 42.1959C192.666 42.3067 192.46 42.4332 192.238 42.544C192.017 42.6547 191.811 42.813 191.621 42.987C191.431 43.161 191.256 43.3667 191.13 43.6199C190.987 43.873 190.924 44.1736 190.924 44.5533C190.924 45.2337 191.114 45.7558 191.494 46.1197C191.874 46.4836 192.365 46.6576 192.951 46.6576C193.316 46.6576 193.632 46.6102 193.886 46.5152C194.139 46.4203 194.361 46.2937 194.551 46.1513C194.741 46.0089 194.884 45.8507 195.01 45.6925C195.137 45.5343 195.248 45.3761 195.343 45.2495L192.888 42.1959H192.856ZM193.664 36.6425C193.284 36.6425 192.967 36.7691 192.714 37.0222C192.46 37.2754 192.333 37.6076 192.333 38.0348C192.333 38.2405 192.365 38.4462 192.444 38.6202C192.523 38.7943 192.619 38.9841 192.729 39.1423C192.84 39.3164 192.967 39.4746 193.094 39.6486C193.22 39.8068 193.347 39.9651 193.474 40.1233C193.664 39.9967 193.838 39.8701 194.012 39.7277C194.187 39.6012 194.345 39.4429 194.488 39.2847C194.63 39.1265 194.741 38.9525 194.82 38.7468C194.9 38.5411 194.947 38.3196 194.947 38.0823C194.947 37.6709 194.836 37.3228 194.599 37.0539C194.361 36.7849 194.06 36.6425 193.664 36.6425Z" fill="#332F21"/>
<path d="M43.1015 62.7012V68.2388C43.1015 69.1248 42.9748 69.8526 42.7213 70.4221C42.4679 70.9917 42.1352 71.4189 41.7551 71.7195C41.3749 72.0201 40.9472 72.2258 40.4878 72.3366C40.0285 72.4473 39.6008 72.5106 39.2206 72.5106C38.8404 72.5106 38.4127 72.4473 37.9692 72.3366C37.5098 72.2258 37.098 72.0201 36.7178 71.7195C36.3377 71.4189 36.005 70.9759 35.7674 70.4221C35.514 69.8526 35.3872 69.1406 35.3872 68.2388V64.9004H30.5718V62.7012H43.1332H43.1015ZM37.1614 64.9004V68.1122C37.1614 68.3653 37.193 68.6026 37.2722 68.8716C37.3514 69.1406 37.4623 69.3621 37.6207 69.5836C37.7791 69.8051 37.9851 69.9791 38.2543 70.1057C38.5236 70.2323 38.8563 70.3114 39.2523 70.3114C39.6483 70.3114 39.9968 70.2481 40.2661 70.1374C40.5353 70.0266 40.7571 69.8684 40.9155 69.6627C41.0739 69.457 41.1848 69.2355 41.2482 68.9824C41.3115 68.7292 41.3432 68.4444 41.3432 68.1596V64.9004H37.193H37.1614Z" fill="#332F21"/>
<path d="M43.1014 77.9375V80.1367H32.4409V86.5128H30.54V77.9375H43.1014Z" fill="#332F21"/>
<path d="M43.1014 94.8987V97.2403L30.54 102.066V99.7084L33.8665 98.5376V93.5222L30.54 92.3514V90.0889L43.1014 94.8987ZM35.5297 94.1234V97.9522L40.9313 96.0695V96.022L35.5297 94.1234Z" fill="#332F21"/>
<path d="M39.094 115.245C39.4583 115.15 39.791 115.024 40.0919 114.865C40.3929 114.707 40.6622 114.486 40.884 114.233C41.1057 113.979 41.28 113.679 41.4067 113.331C41.5334 112.983 41.5968 112.587 41.5968 112.128C41.5968 111.464 41.4701 110.878 41.1849 110.404C40.8998 109.929 40.5513 109.518 40.1078 109.217C39.6643 108.916 39.1415 108.695 38.5713 108.537C38.001 108.379 37.4149 108.315 36.813 108.315C36.2111 108.315 35.625 108.394 35.0547 108.537C34.4845 108.679 33.9617 108.916 33.5182 109.217C33.0747 109.518 32.7103 109.913 32.4411 110.404C32.1718 110.894 32.0451 111.464 32.0451 112.128C32.0451 112.619 32.1243 113.046 32.2985 113.426C32.4727 113.805 32.7103 114.122 32.9955 114.391C33.2964 114.66 33.6449 114.865 34.0409 115.024C34.4369 115.182 34.8646 115.277 35.324 115.324V117.46C34.5795 117.413 33.8825 117.254 33.2648 116.986C32.647 116.717 32.1084 116.337 31.649 115.862C31.1897 115.388 30.8412 114.85 30.6036 114.217C30.3501 113.584 30.2393 112.888 30.2393 112.128C30.2393 111.195 30.4135 110.356 30.762 109.613C31.1105 108.869 31.5857 108.236 32.1718 107.73C32.7737 107.208 33.4707 106.812 34.2627 106.543C35.0547 106.274 35.9101 106.132 36.813 106.132C37.7159 106.132 38.5554 106.274 39.3474 106.543C40.1395 106.812 40.8364 107.208 41.4384 107.73C42.0403 108.252 42.5155 108.869 42.864 109.613C43.2125 110.356 43.3867 111.195 43.3867 112.128C43.3867 112.824 43.2917 113.489 43.1016 114.122C42.9115 114.739 42.6264 115.293 42.2621 115.767C41.8977 116.242 41.4384 116.622 40.9156 116.922C40.3929 117.223 39.791 117.397 39.1098 117.46V115.261L39.094 115.245Z" fill="#332F21"/>
<path d="M43.1014 122.981V132.016H41.2006V125.181H37.9058V131.509H36.1158V125.181H32.4409V132.142H30.54V122.981H43.1014Z" fill="#332F21"/>
<path d="M115.349 90.5316C115.349 83.0163 109.251 76.9092 101.711 76.9092C94.1708 76.9092 88.0723 83.0005 88.0723 90.5316C88.0723 98.0627 94.1708 104.154 101.711 104.154C109.251 104.154 115.349 98.0627 115.349 90.5316Z" fill="#727337"/>
</g>
<defs>
<clipPath id="clip0_719_1027">
<rect width="200" height="132.127" fill="white"/>
</clipPath>
</defs>
</svg>
