<svg width="110" height="29" viewBox="0 0 110 29" fill="none" xmlns="http://www.w3.org/2000/svg">
<path d="M14.8299 0.5C6.64008 0.5 0 6.76796 0 14.5C0 22.232 6.64008 28.5 14.8299 28.5C23.0196 28.5 29.6609 22.232 29.6609 14.5C29.6609 6.76796 23.0208 0.5 14.8299 0.5ZM14.8299 25.3147C8.42575 25.3101 3.20716 20.4611 3.20716 14.5C3.20716 8.53882 8.42575 3.68981 14.8299 3.68981C21.234 3.68981 26.4526 8.53882 26.4526 14.5C26.4526 20.4611 21.2385 25.3101 14.8299 25.3101V25.3147Z" fill="#EDEBD8"/>
<path d="M63.2051 0.827148V28.1402H80.3776V25.1275H66.9647C66.7704 25.1275 66.584 25.0507 66.4465 24.9141C66.3091 24.7774 66.2319 24.5921 66.2319 24.3988V16.1028C66.2319 15.9096 66.3091 15.7242 66.4465 15.5876C66.584 15.4509 66.7704 15.3742 66.9647 15.3742H76.1199V12.3569H66.9647C66.7704 12.3569 66.584 12.2802 66.4465 12.1435C66.3091 12.0069 66.2319 11.8215 66.2319 11.6283V4.56739C66.2319 4.37414 66.3091 4.18881 66.4465 4.05216C66.584 3.91551 66.7704 3.83875 66.9647 3.83875H80.3776V0.827148H63.2051Z" fill="#EDEBD8"/>
<path d="M106.926 0.789024V17.3449C106.922 17.4934 106.87 17.6366 106.776 17.7525C106.683 17.8684 106.554 17.9505 106.409 17.9861C106.264 18.0218 106.111 18.009 105.974 17.9498C105.837 17.8906 105.723 17.7882 105.65 17.6585C101.687 10.3821 95.6671 4.20217 89.0871 0.75293H86.024L86.0127 28.137H89.0871V5.1925C89.0871 5.05663 89.1238 4.92325 89.1934 4.80631C89.2629 4.68938 89.3629 4.59319 89.4827 4.52781C89.6025 4.46244 89.7377 4.43028 89.8743 4.4347C90.0109 4.43912 90.1438 4.47997 90.259 4.55296C97.9043 9.44145 104.313 18.3928 106.915 28.0355H106.926V28.1483H110V0.789024H106.926Z" fill="#EDEBD8"/>
<path d="M48.1459 0.842773H35.6077V0.876612H35.5112V28.1569H38.5108V23.5922C38.5121 23.1645 38.6551 22.7491 38.9179 22.4104C39.1806 22.0717 39.5483 21.8286 39.964 21.7187L50.2197 18.9733C51.9838 18.5007 53.5267 17.6197 54.6816 16.4185C56.3719 14.6694 57.3288 12.3459 57.3578 9.92043C57.4191 4.92591 53.1659 0.842773 48.1459 0.842773ZM52.6497 14.4829C51.8488 15.3154 50.7552 15.9346 49.4857 16.2741L39.2402 19.0116C39.1545 19.0346 39.0646 19.0377 38.9775 19.0207C38.8903 19.0036 38.8083 18.9668 38.7378 18.9131C38.6672 18.8595 38.6101 18.7904 38.5707 18.7112C38.5313 18.6321 38.5108 18.545 38.5108 18.4567V4.39127C38.5108 4.19024 38.5911 3.99745 38.7341 3.8553C38.877 3.71315 39.071 3.6333 39.2732 3.6333H48.2355C51.6174 3.6333 54.4751 6.27831 54.5477 9.63957C54.5685 10.5315 54.4114 11.4186 54.0857 12.2499C53.7599 13.0812 53.2719 13.8401 52.6497 14.4829Z" fill="#EDEBD8"/>
</svg>
