<svg width="14" height="20" viewBox="0 0 14 20" fill="none" xmlns="http://www.w3.org/2000/svg">
<path d="M6.99967 -7.32425e-05C5.14484 0.00249646 3.36674 0.713728 2.05517 1.9777C0.743608 3.24168 0.00559614 4.95526 0.00292969 6.74278C0.00292969 8.13421 0.589944 10.0479 1.27776 11.1628L6.58757 19.7696C6.63043 19.8389 6.69121 19.8962 6.76396 19.9361C6.83672 19.9759 6.91896 19.9968 7.00263 19.9968C7.08631 19.9968 7.16855 19.9759 7.2413 19.9361C7.31406 19.8962 7.37484 19.8389 7.4177 19.7696L12.7281 11.1628C13.4159 10.0479 14.0023 8.13421 14.0023 6.74336C14.0005 4.95528 13.2628 3.24091 11.9512 1.97622C10.6395 0.711542 8.861 -0.000207187 7.0056 -0.00292969L6.99967 -7.32425e-05ZM6.99967 0.930211C7.79238 0.929308 8.57749 1.07912 9.31004 1.37105C10.0426 1.66298 10.7082 2.09131 11.2687 2.6315C11.8292 3.17169 12.2737 3.81314 12.5766 4.51911C12.8796 5.22507 13.035 5.98169 13.0341 6.74564C13.0341 7.85478 12.4411 9.80792 11.895 10.6931L6.99967 18.6239L2.10492 10.6931C1.55882 9.80792 0.96587 7.85478 0.96587 6.74564C0.965012 5.98177 1.12052 5.22524 1.42349 4.51937C1.72645 3.8135 2.17093 3.17216 2.73146 2.63207C3.29199 2.09198 3.95757 1.66376 4.69008 1.37193C5.42258 1.08009 6.20763 0.930377 7.00026 0.931355L6.99967 0.930211ZM6.99967 3.2565C6.2836 3.2565 5.58361 3.46113 4.98822 3.84452C4.39283 4.22792 3.92878 4.77285 3.65475 5.4104C3.38072 6.04796 3.30902 6.74951 3.44872 7.42634C3.58842 8.10317 3.93324 8.72487 4.43958 9.21283C4.94592 9.7008 5.59103 10.0331 6.29334 10.1677C6.99565 10.3024 7.72362 10.2333 8.38518 9.96919C9.04674 9.7051 9.61219 9.25789 10.01 8.6841C10.4078 8.11032 10.6202 7.43573 10.6202 6.74564C10.6181 5.82086 10.236 4.93453 9.55751 4.28061C8.87897 3.6267 7.95926 3.25846 6.99967 3.2565ZM6.99967 4.18678C7.52482 4.18678 8.03818 4.33686 8.47482 4.61803C8.91147 4.8992 9.25179 5.29884 9.45276 5.76641C9.65372 6.23398 9.7063 6.74848 9.60385 7.24484C9.5014 7.74121 9.24852 8.19716 8.87718 8.55502C8.50584 8.91288 8.03273 9.15659 7.51767 9.25533C7.00261 9.35406 6.46874 9.30339 5.98357 9.10972C5.49839 8.91604 5.0837 8.58807 4.79195 8.16726C4.50019 7.74646 4.34447 7.25173 4.34447 6.74564C4.34368 6.40947 4.41184 6.07647 4.54502 5.76577C4.6782 5.45508 4.87378 5.1728 5.12052 4.93518C5.36726 4.69755 5.66029 4.50926 5.98278 4.38112C6.30526 4.25298 6.65085 4.18752 6.99967 4.1885V4.18678Z" fill="#727337"/>
</svg>
