<svg width="21" height="20" viewBox="0 0 21 20" fill="none" xmlns="http://www.w3.org/2000/svg">
<path d="M20.0497 0.603719C19.8543 0.412412 19.622 0.260576 19.366 0.156962C19.11 0.0533471 18.8354 0 18.5581 0C18.2808 0 18.0062 0.0533471 17.7502 0.156962C17.4942 0.260576 17.2618 0.412412 17.0665 0.603719L12.2657 5.24766L2.85885 2.28146C2.64231 2.21033 2.40972 2.19901 2.18695 2.24874C1.96418 2.29847 1.75998 2.40731 1.59707 2.56315L0.553793 3.57724C0.428154 3.696 0.330382 3.83974 0.267161 3.99862C0.203941 4.1575 0.176764 4.32777 0.187488 4.4978C0.203098 4.66484 0.25269 4.82721 0.333381 4.97547C0.414073 5.12373 0.524256 5.25494 0.65754 5.36147L6.80996 10.2167C6.83566 10.2371 6.85698 10.2622 6.87269 10.2906C6.88841 10.3191 6.89821 10.3502 6.90153 10.3823C6.90239 10.4532 6.87616 10.5218 6.82792 10.575L4.89149 12.4572L2.23346 11.9322C2.03237 11.8943 1.82479 11.9046 1.62875 11.9623C1.4327 12.0201 1.25411 12.1234 1.10847 12.2634L0.367165 12.9834C0.239289 13.1054 0.140319 13.2531 0.0771547 13.416C0.0139909 13.579 -0.0118471 13.7534 0.00144002 13.9271C0.0206616 14.0995 0.0770506 14.266 0.166931 14.4158C0.256812 14.5656 0.378166 14.6953 0.523077 14.7964L3.30224 16.7119L3.32137 16.7232C3.33933 16.7322 3.33991 16.7322 3.34919 16.7502L3.35382 16.7598L5.35111 19.491C5.52103 19.7275 5.77357 19.8959 6.0617 19.9648L6.02344 20.002H6.3712C6.68946 19.997 6.99514 19.8804 7.2319 19.6736L7.9848 18.9446L7.98886 18.9406C8.12902 18.797 8.23251 18.6233 8.29101 18.4337C8.34949 18.244 8.36135 18.0437 8.3256 17.8488L7.8086 15.402L9.814 13.4527C9.84284 13.4262 9.87711 13.406 9.91457 13.3933C9.95202 13.3805 9.99182 13.3757 10.0314 13.3789C10.0642 13.3804 10.0963 13.3886 10.1255 13.4032C10.1547 13.4178 10.1803 13.4383 10.2006 13.4634L15.1306 19.4471C15.2442 19.5928 15.3913 19.7105 15.5603 19.7908C15.7292 19.871 15.9152 19.9115 16.1032 19.9091C16.4291 19.9056 16.7404 19.7775 16.9697 19.5525L18.0391 18.513C18.3694 18.1654 18.4761 17.7079 18.3254 17.2939L15.2721 8.14738L20.0491 3.504C20.4444 3.11927 20.6666 2.59776 20.6667 2.05398C20.6668 1.5102 20.4449 0.9886 20.0497 0.603719ZM14.3569 7.67133C14.2898 7.73633 14.2425 7.81807 14.2202 7.90755C14.1979 7.99702 14.2015 8.09074 14.2305 8.17837L17.3789 17.6065C17.3953 17.6474 17.3986 17.6921 17.3883 17.7348C17.3779 17.7774 17.3544 17.816 17.3209 17.8454L16.2777 18.8595C16.2489 18.8859 16.2147 18.9061 16.1774 18.9188C16.14 18.9316 16.1003 18.9365 16.0609 18.9333C16.028 18.932 15.9958 18.9237 15.9664 18.9092C15.9371 18.8946 15.9114 18.874 15.8911 18.8488L10.961 12.8651C10.8474 12.7195 10.7002 12.6019 10.5313 12.5218C10.3624 12.4416 10.1764 12.4012 9.98846 12.4037C9.66168 12.4062 9.34916 12.5342 9.11907 12.7598L7.12757 14.6955C7.08625 14.739 7.04019 14.7779 6.99021 14.8116C6.91038 14.8631 6.84831 14.9367 6.81204 15.0229C6.77577 15.1091 6.76696 15.2039 6.78677 15.295L7.34261 18.042C7.34733 18.0804 7.34294 18.1192 7.32978 18.1557C7.31661 18.1921 7.29503 18.2251 7.26668 18.2522L6.52595 18.9722C6.50347 18.9949 6.47647 19.013 6.44658 19.0253C6.41669 19.0376 6.38453 19.0439 6.35207 19.0437C6.22224 19.0437 6.1782 18.9925 6.15212 18.9541L4.17511 16.2184C4.09204 16.1133 3.99453 16.0199 3.88531 15.9406L1.08644 14.0296C1.05689 14.0086 1.03233 13.9815 1.01443 13.9504C0.99653 13.9193 0.985711 13.8849 0.982696 13.8494C0.978875 13.8105 0.983391 13.7713 0.995962 13.7343C1.00853 13.6972 1.02888 13.6631 1.05572 13.6341L1.79703 12.9136C1.84026 12.8696 1.89966 12.8441 1.96221 12.8426H1.98192L1.99467 12.855L4.9709 13.3789C5.08682 13.4139 5.26591 13.4139 5.45602 13.2291L5.47225 13.2127L5.48268 13.1925C5.49971 13.1635 5.52189 13.1378 5.54817 13.1164L7.53967 11.1806C7.66556 11.062 7.7635 10.9183 7.82674 10.7594C7.88998 10.6005 7.91701 10.4301 7.90597 10.2601C7.89055 10.0928 7.84099 9.93027 7.76018 9.78188C7.67938 9.63349 7.56894 9.50225 7.43534 9.39583L1.28235 4.6071C1.23056 4.56601 1.19763 4.50666 1.19077 4.44203C1.18994 4.37099 1.21615 4.30217 1.26438 4.24879L2.30765 3.23471C2.34012 3.20529 2.37992 3.18462 2.42312 3.17474C2.46632 3.16486 2.51143 3.16611 2.55398 3.17837L12.2582 6.23809C12.3484 6.26611 12.4448 6.26941 12.5368 6.24765C12.6288 6.22588 12.7129 6.17988 12.7798 6.11471L17.7551 1.25442C17.971 1.0518 18.2583 0.936941 18.5584 0.933295C18.8569 0.932693 19.1436 1.04645 19.3565 1.24991C19.7889 1.69048 19.79 2.38963 19.3565 2.80879L14.3569 7.67133Z" fill="#727337"/>
</svg>
