<svg width="23" height="20" viewBox="0 0 23 20" fill="none" xmlns="http://www.w3.org/2000/svg">
<mask id="path-1-inside-1_719_574" fill="white">
<path fill-rule="evenodd" clip-rule="evenodd" d="M13.6083 7.62656H22.011L15.2124 12.3471L17.8097 19.9869L11.011 15.2531L4.21236 19.9869L6.80965 12.3471L0 7.62656H8.4027L11 0L13.5973 7.62656"/>
</mask>
<path d="M22.011 7.62656L22.5813 8.44797L25.2046 6.62656H22.011V7.62656ZM15.2124 12.3471L14.642 11.5257L14.023 11.9555L14.2656 12.669L15.2124 12.3471ZM17.8097 19.9869L17.2382 20.8075L19.7362 22.5468L18.7564 19.665L17.8097 19.9869ZM11.011 15.2531L11.5824 14.4325L11.011 14.0346L10.4396 14.4325L11.011 15.2531ZM4.21236 19.9869L3.26558 19.665L2.28585 22.5468L4.78376 20.8075L4.21236 19.9869ZM6.80965 12.3471L7.75644 12.669L7.99919 11.955L7.37937 11.5253L6.80965 12.3471ZM0 7.62656V6.62656H-3.19781L-0.569715 8.4484L0 7.62656ZM8.4027 7.62656V8.62656H9.11854L9.34931 7.94894L8.4027 7.62656ZM11 0L11.9466 -0.322378L11 -3.10195L10.0534 -0.322378L11 0ZM13.6083 8.62656H22.011V6.62656H13.6083V8.62656ZM21.4407 6.80515L14.642 11.5257L15.7827 13.1685L22.5813 8.44797L21.4407 6.80515ZM14.2656 12.669L16.8629 20.3087L18.7564 19.665L16.1591 12.0253L14.2656 12.669ZM18.3811 19.1662L11.5824 14.4325L10.4396 16.0738L17.2382 20.8075L18.3811 19.1662ZM10.4396 14.4325L3.64095 19.1662L4.78376 20.8075L11.5824 16.0738L10.4396 14.4325ZM5.15914 20.3087L7.75644 12.669L5.86287 12.0253L3.26558 19.665L5.15914 20.3087ZM7.37937 11.5253L0.569715 6.80472L-0.569715 8.4484L6.23994 13.169L7.37937 11.5253ZM0 8.62656H8.4027V6.62656H0V8.62656ZM9.34931 7.94894L11.9466 0.322378L10.0534 -0.322378L7.45609 7.30418L9.34931 7.94894ZM10.0534 0.322378L12.6507 7.94894L14.5439 7.30418L11.9466 -0.322378L10.0534 0.322378Z" fill="#727337" mask="url(#path-1-inside-1_719_574)"/>
</svg>
