<svg width="20" height="20" viewBox="0 0 20 20" fill="none" xmlns="http://www.w3.org/2000/svg">
<path d="M10 0C4.48556 0 0 4.48611 0 10C0 15.5139 4.48556 20 10 20C15.5144 20 20 15.5139 20 10C20 4.48611 15.5139 0 10 0ZM10 19.0736C4.99673 19.0736 0.926431 15.0033 0.926431 10C0.926431 4.99673 4.99673 0.92643 10 0.92643C15.0033 0.92643 19.0736 4.99673 19.0736 10C19.0736 15.0033 15.0005 19.0736 10 19.0736Z" fill="#727337"/>
<path d="M14.1796 6.75347C14.0798 6.40643 13.8977 6.08861 13.6488 5.82704C13.3959 5.56055 13.0493 5.34911 12.6221 5.1987C12.1948 5.04829 11.6548 4.97363 11.0084 4.97363H7.41661C7.3877 4.97363 7.35998 4.98511 7.33954 5.00555C7.3191 5.02599 7.30762 5.05372 7.30762 5.08262V14.9159C7.30762 14.9448 7.3191 14.9725 7.33954 14.9929C7.35998 15.0134 7.3877 15.0249 7.41661 15.0249H8.34304C8.37195 15.0249 8.39967 15.0134 8.42011 14.9929C8.44055 14.9725 8.45203 14.9448 8.45203 14.9159V10.6848H10.4466C10.9088 10.6846 11.37 10.6428 11.8248 10.56C12.2617 10.4849 12.6824 10.335 13.0684 10.117C13.4378 9.90402 13.7488 9.60298 13.9736 9.24066C14.2068 8.86954 14.3251 8.39489 14.3251 7.83085C14.3273 7.46668 14.2783 7.104 14.1796 6.75347ZM12.4738 9.29951C12.216 9.452 11.9303 9.55131 11.6335 9.59161C11.2503 9.64827 10.8633 9.67524 10.476 9.67227H8.45421V5.98453H10.7501C11.6041 5.98453 12.2313 6.13712 12.6155 6.43903C12.9997 6.74093 13.1817 7.1709 13.1817 7.76001C13.1817 8.15946 13.1191 8.4848 12.9954 8.7284C12.8774 8.96313 12.6969 9.16075 12.4738 9.29951Z" fill="#727337"/>
</svg>
